<svg width="230" height="30" viewBox="0 0 230 30" fill="none" xmlns="http://www.w3.org/2000/svg">
<path d="M12.6174 0.699532C12.7366 0.589211 13.0698 0.423297 13.357 0.33035C13.8556 0.169647 14.1906 0.160961 27.6276 0.147931L27.813 0.345117C27.9156 0.454569 28.0679 0.680421 28.1515 0.847204C28.2359 1.01486 28.4934 1.46396 28.7249 1.84617C28.9564 2.22838 29.1469 2.60972 29.1478 2.69311C29.1495 2.7765 29.1991 2.87466 29.2592 2.91028C29.3192 2.94589 29.4141 3.05361 29.4706 3.14916C29.5272 3.24471 29.8439 3.79197 30.1737 4.36529C30.5035 4.93861 31.1265 6.01401 31.5581 6.75411C31.9889 7.49508 32.4527 8.29599 32.5875 8.53487C32.7224 8.77376 32.8268 9.07692 32.819 9.20809C32.8112 9.33925 32.5771 9.82831 32.2978 10.2939C32.0184 10.7595 31.5825 11.5126 31.3284 11.9661C31.0752 12.4204 30.755 12.9572 30.6184 13.1605C30.4809 13.3638 30.3695 13.5392 30.3712 13.5514C30.373 13.5636 30.152 13.964 29.8813 14.4418C29.6107 14.9195 29.3122 15.4468 29.2183 15.6145C29.1243 15.7821 28.9242 16.114 28.7745 16.3528C28.624 16.5917 28.4708 16.7967 28.4343 16.8089C28.3977 16.821 28.3673 16.8897 28.3673 16.9609C28.3673 17.0321 28.1201 17.5116 27.8173 18.025C27.5154 18.5384 27.0794 19.2907 26.8488 19.6972C26.6191 20.1037 26.3276 20.5771 26.2023 20.75C26.077 20.9237 25.7785 21.2295 25.5392 21.4293C25.2999 21.63 24.9179 21.8888 24.6908 22.0052C24.4637 22.1216 24.033 22.2745 23.7336 22.3457C23.2759 22.4535 22.1256 22.4734 16.4896 22.4691C12.8044 22.4665 9.72233 22.4378 9.63966 22.4057C9.51262 22.3553 9.62226 22.1173 10.3906 20.783L10.5172 20.5632C10.9936 19.7356 11.595 18.691 12.3441 17.3952L22.3196 17.3535L22.7034 16.6795C22.914 16.3085 23.3969 15.4781 23.7754 14.8327C24.1539 14.1873 24.5098 13.5818 24.5664 13.4863C24.623 13.3907 24.7691 13.1562 24.891 12.9651C25.0128 12.7739 25.1346 12.5585 25.1616 12.4873C25.1886 12.4161 25.6524 11.5952 26.1919 10.6631C26.7305 9.73189 27.6363 8.15787 28.2045 7.16673C28.7727 6.17558 29.2374 5.34514 29.2374 5.32082C29.2374 5.29737 26.097 5.28694 15.2809 5.32082L14.3185 6.9539C13.6946 8.01367 13.3874 8.61479 13.444 8.66691C13.4953 8.71382 15.5028 8.74856 18.2951 8.74943C22.7739 8.75204 23.0593 8.76072 23.0575 8.90405C23.0567 8.98745 22.6407 9.7788 22.1334 10.6631C21.6261 11.5474 21.1641 12.3292 21.1058 12.4004C21.0475 12.4717 20.8717 12.7852 20.7159 13.0954C20.5593 13.4055 20.367 13.7095 20.2878 13.7703C20.1756 13.8563 19.06 13.8798 10.2679 13.8771L10.1104 14.2029C10.0234 14.3818 9.84241 14.7241 9.70753 14.963C9.57266 15.2019 9.41603 15.4564 9.35947 15.5276C9.30378 15.5988 9.21067 15.7561 9.15324 15.8751C9.09581 15.995 8.94179 16.2755 8.8104 16.4996C8.67901 16.7238 7.92458 18.0241 7.13534 19.3897C6.34611 20.7552 5.54904 22.1355 5.36457 22.4569C5.18009 22.7783 4.62145 23.7452 4.12285 24.6051C3.62424 25.4651 3.14131 26.2669 3.04994 26.3859C2.95857 26.5058 2.86633 26.5831 2.84545 26.5596C2.82457 26.5362 2.59397 26.1644 2.3338 25.7344C2.07449 25.3044 1.72294 24.7181 1.55326 24.4314C1.38445 24.1447 0.966775 23.422 0.625672 22.8244C0.284569 22.2276 0.00263729 21.6995 2.68096e-05 21.6517C-0.00345383 21.6039 0.332428 20.9785 0.745754 20.2618C1.15908 19.5452 1.64463 18.7043 1.82562 18.3942C2.00662 18.0841 2.61486 17.0278 3.17698 16.0488C3.73911 15.0698 4.29949 14.1117 4.42305 13.9206C4.54574 13.7295 4.74066 13.3968 4.85552 13.1822C4.97125 12.9677 5.16356 12.615 5.28277 12.4004C5.40198 12.1859 5.69697 11.6777 5.93713 11.2712C6.17729 10.8646 6.52101 10.2783 6.70113 9.96817C6.88038 9.65805 7.33722 8.87626 7.71487 8.23084C8.09339 7.58542 8.51542 6.84359 8.65203 6.58038C8.78865 6.31718 8.95311 6.04355 9.01663 5.97232C9.08015 5.90109 9.13323 5.81248 9.1341 5.77687C9.13584 5.74125 9.24809 5.52582 9.38471 5.2991C9.52045 5.07238 10.0173 4.22196 10.4881 3.40976C10.9588 2.59756 11.467 1.75496 11.6167 1.53692C11.7672 1.31976 12.0048 1.08696 12.1449 1.02007C12.285 0.953181 12.4973 0.808983 12.6174 0.699532Z" fill="#BF0A30"/>
<path d="M42.5763 13.5799V22.4852C42.2403 22.4852 41.9637 22.4753 41.7463 22.4556C40.8965 22.3767 40.4321 22.3373 40.3531 22.3373C40.0171 22.3373 39.5823 22.357 39.0487 22.3965C38.5152 22.4556 38.2088 22.4852 38.1298 22.4852V2.18935H45.4221C49.6512 2.18935 51.7657 3.85602 51.7657 7.18935C51.7657 9.65483 50.9061 11.3807 49.1868 12.3669C47.7836 13.1755 45.5802 13.5799 42.5763 13.5799ZM42.5763 3.78698V11.9527C43.0111 11.9527 43.347 11.9428 43.5842 11.9231C43.8213 11.9034 44.1375 11.8442 44.5328 11.7456C45.4418 11.4892 46.1236 10.9763 46.5782 10.2071C46.9734 9.53649 47.171 8.70809 47.171 7.72189C47.171 6.57791 46.9042 5.64103 46.3706 4.91124C45.8568 4.16174 45.2047 3.78698 44.4142 3.78698H42.5763Z" fill="#002868"/>
<path d="M58.633 0V22.4852C58.2971 22.4458 58.05 22.426 57.8919 22.426C57.2003 22.3669 56.7655 22.3373 56.5876 22.3373C56.1529 22.3373 55.7576 22.357 55.4019 22.3965C55.0462 22.4359 54.7596 22.4655 54.5422 22.4852V0C54.8782 0.0394484 55.2537 0.0788962 55.6687 0.118343C56.1035 0.138067 56.4098 0.147929 56.5876 0.147929C57.0224 0.147929 57.4177 0.128205 57.7734 0.088758C58.1291 0.0493108 58.4156 0.0197248 58.633 0Z" fill="#002868"/>
<path d="M69.4623 17.6036V14.7337C68.8695 14.9507 68.3952 15.1183 68.0395 15.2367C67.3873 15.4734 66.8834 15.7396 66.5276 16.0355C66.1719 16.3116 65.9249 16.6469 65.7866 17.0414C65.6482 17.4359 65.5791 17.9093 65.5791 18.4615C65.5791 19.1322 65.6976 19.6943 65.9348 20.1479C66.1917 20.6016 66.6166 20.8284 67.2094 20.8284C68.0395 20.8284 68.6422 20.4832 69.0177 19.7929C69.3141 19.2406 69.4623 18.5108 69.4623 17.6036ZM73.5531 11.8343V19.8817C73.5531 20.4339 73.6519 20.8087 73.8496 21.0059C74.0669 21.1834 74.4721 21.2722 75.0649 21.2722V21.9527C74.6895 22.1302 74.2349 22.3077 73.7013 22.4852C73.1875 22.6627 72.7527 22.7515 72.397 22.7515C71.7251 22.7515 71.1224 22.5641 70.5888 22.1894C70.075 21.7949 69.6995 21.2623 69.4623 20.5917C69.0671 21.2821 68.5335 21.8146 67.8616 22.1894C67.1897 22.5641 66.4585 22.7515 65.668 22.7515C64.4032 22.7515 63.3953 22.426 62.6444 21.7751C61.8341 21.0651 61.429 20.0888 61.429 18.8462C61.429 17.5049 61.8638 16.5089 62.7333 15.858C63.4447 15.3254 64.8182 14.8126 66.8537 14.3195C67.3083 14.2012 67.6739 14.1026 67.9505 14.0237C68.3853 13.8856 68.741 13.7278 69.0177 13.5503C69.1758 13.3925 69.2845 13.2249 69.3438 13.0473C69.4228 12.8698 69.4623 12.6529 69.4623 12.3964C69.4623 11.7061 69.1659 11.1045 68.573 10.5917C67.9999 10.0592 67.3577 9.7929 66.6462 9.7929C65.7964 9.7929 64.9763 10.0296 64.1858 10.503C63.5337 10.8974 63.1483 11.2722 63.0297 11.6272H62.8222L62.4369 9.85207C63.1088 9.22091 63.9388 8.73767 64.9269 8.40237C65.9348 8.04734 66.9328 7.86982 67.9209 7.86982C69.4031 7.86982 70.6481 8.15582 71.656 8.72781C72.9207 9.43787 73.5531 10.4734 73.5531 11.8343Z" fill="#002868"/>
<path d="M78.3257 30L82.0904 22.3669L76.1024 8.1361C76.4186 8.1361 76.8435 8.16568 77.3771 8.22485C77.9305 8.2643 78.2565 8.28402 78.3553 8.28402C78.6715 8.28402 79.0964 8.2643 79.63 8.22485C80.1833 8.16568 80.5094 8.1361 80.6082 8.1361C81.1813 9.73373 81.7544 11.2821 82.3276 12.7811C82.7821 13.9448 83.3947 15.4635 84.1654 17.3373L85.2919 14.3195C85.6674 13.3136 86.0527 12.2978 86.448 11.2722C86.8432 10.2465 87.2088 9.20118 87.5448 8.1361L88.7602 8.22485L89.9755 8.1361L86.9816 14.9112C86.5073 15.9763 85.8057 17.6134 84.8769 19.8225C83.9481 22.0118 83.2465 23.6982 82.7722 24.8817C82.1596 26.4004 81.5074 28.1065 80.8157 30L79.5707 29.9112L78.3257 30Z" fill="#002868"/>
<path d="M97.1196 12.6923V22.4852C96.7836 22.4852 96.5069 22.4753 96.2896 22.4556C95.4398 22.3767 94.9754 22.3373 94.8963 22.3373C94.5604 22.3373 94.1256 22.357 93.592 22.3965C93.0584 22.4556 92.7521 22.4852 92.6731 22.4852V2.18935H103.967C103.928 2.40631 103.888 2.63314 103.849 2.86982C103.829 3.10651 103.819 3.30375 103.819 3.46154C103.819 3.59961 103.839 3.80671 103.878 4.08284C103.918 4.35897 103.947 4.57594 103.967 4.73373C102.643 4.57594 101.546 4.46746 100.677 4.40829C99.8072 4.34911 98.6215 4.31953 97.1196 4.31953V10.6805H100.262C100.953 10.6805 101.467 10.6706 101.803 10.6509C102.159 10.6114 102.841 10.5325 103.849 10.4142C103.809 10.6312 103.77 10.858 103.73 11.0947C103.71 11.3314 103.7 11.5286 103.7 11.6864C103.7 11.8245 103.72 12.0316 103.76 12.3077C103.799 12.5838 103.829 12.8008 103.849 12.9586C103.236 12.8994 102.613 12.8402 101.981 12.7811C101.349 12.7219 100.766 12.6923 100.232 12.6923H97.1196Z" fill="#002868"/>
<path d="M107.258 22.4852V8.1361C107.594 8.17554 107.969 8.21499 108.384 8.25444C108.819 8.27416 109.125 8.28402 109.303 8.28402C109.738 8.28402 110.133 8.2643 110.489 8.22485C110.844 8.1854 111.131 8.15582 111.348 8.1361V22.4852C111.012 22.4458 110.765 22.426 110.607 22.426C109.916 22.3669 109.481 22.3373 109.303 22.3373C108.868 22.3373 108.473 22.357 108.117 22.3965C107.762 22.4359 107.475 22.4655 107.258 22.4852ZM106.961 2.72189C106.961 2.11045 107.188 1.56805 107.643 1.09467C108.097 0.621302 108.641 0.384616 109.273 0.384616C109.906 0.384616 110.459 0.61144 110.933 1.06509C111.408 1.51874 111.645 2.07101 111.645 2.72189C111.645 3.35306 111.408 3.90533 110.933 4.3787C110.479 4.83235 109.925 5.05917 109.273 5.05917C108.621 5.05917 108.068 4.83235 107.613 4.3787C107.179 3.90533 106.961 3.35306 106.961 2.72189Z" fill="#002868"/>
<path d="M115.063 22.4852V8.1361C115.379 8.17554 115.735 8.21499 116.13 8.25444C116.545 8.27416 116.852 8.28402 117.049 8.28402C117.484 8.28402 117.86 8.2643 118.176 8.22485C118.512 8.1854 118.788 8.15582 119.006 8.1361V10.3254C119.658 9.57594 120.33 8.99408 121.022 8.57988C121.832 8.10651 122.682 7.86982 123.571 7.86982C125.33 7.86982 126.575 8.41223 127.306 9.49704C127.938 10.4241 128.255 11.8639 128.255 13.8166V22.4852C127.919 22.4458 127.672 22.426 127.513 22.426C126.822 22.3669 126.387 22.3373 126.209 22.3373C125.774 22.3373 125.379 22.357 125.023 22.3965C124.668 22.4359 124.381 22.4655 124.164 22.4852V15.1183C124.164 13.5207 124.025 12.3866 123.749 11.716C123.373 10.8087 122.701 10.355 121.733 10.355C120.607 10.355 119.856 11.0059 119.48 12.3077C119.263 13.0572 119.154 14.1815 119.154 15.6805V22.4852C118.818 22.4458 118.571 22.426 118.413 22.426C117.721 22.3669 117.287 22.3373 117.109 22.3373C116.674 22.3373 116.279 22.357 115.923 22.3965C115.567 22.4359 115.281 22.4655 115.063 22.4852Z" fill="#002868"/>
<path d="M144.667 0V22.4852C144.232 22.4458 143.847 22.4063 143.511 22.3669C143.195 22.3471 142.928 22.3373 142.711 22.3373C142.256 22.3373 141.861 22.357 141.525 22.3965C141.209 22.4359 140.942 22.4655 140.724 22.4852V19.8817C140.033 21.7949 138.679 22.7515 136.663 22.7515C134.628 22.7515 133.106 21.9921 132.098 20.4734C131.248 19.1913 130.824 17.4753 130.824 15.3254C130.824 13.2742 131.288 11.5582 132.217 10.1775C133.244 8.63905 134.687 7.86982 136.545 7.86982C137.474 7.86982 138.274 8.03748 138.946 8.37278C139.618 8.70809 140.161 9.25049 140.576 10V0C140.912 0.0394484 141.288 0.0788962 141.703 0.118343C142.137 0.138067 142.444 0.147929 142.622 0.147929C143.056 0.147929 143.452 0.128205 143.807 0.088758C144.163 0.0493108 144.45 0.0197248 144.667 0ZM138.057 9.7929C136.95 9.7929 136.159 10.4931 135.685 11.8935C135.369 12.8402 135.211 14.0138 135.211 15.4142C135.211 16.8146 135.339 17.929 135.596 18.7574C136.031 20.1381 136.772 20.8284 137.819 20.8284C138.946 20.8284 139.746 20.1085 140.221 18.6686C140.537 17.7219 140.695 16.5286 140.695 15.0888C140.695 13.7475 140.556 12.6529 140.28 11.8047C139.845 10.4635 139.104 9.7929 138.057 9.7929Z" fill="#002868"/>
<path d="M151.801 13.9053H156.188C156.188 12.6824 156.09 11.7061 155.892 10.9763C155.576 9.7929 155.022 9.20118 154.232 9.20118C153.283 9.20118 152.611 9.78304 152.216 10.9467C151.939 11.7554 151.801 12.7416 151.801 13.9053ZM160.279 15.3254H151.801C151.801 17.0414 152.088 18.3432 152.661 19.2308C153.333 20.2959 154.42 20.8284 155.922 20.8284C156.534 20.8284 157.137 20.7101 157.73 20.4734C158.323 20.2367 158.876 19.9112 159.39 19.497L159.746 19.7633L159.093 21.4201C157.829 22.3077 156.416 22.7515 154.854 22.7515C152.424 22.7515 150.576 22.071 149.311 20.7101C148.046 19.3491 147.414 17.4359 147.414 14.9704C147.414 12.86 148.017 11.1538 149.222 9.85207C150.447 8.53057 152.107 7.86982 154.202 7.86982C156.396 7.86982 157.987 8.57988 158.975 10C159.844 11.2426 160.279 13.0178 160.279 15.3254Z" fill="#002868"/>
<path d="M163.184 22.4852V8.1361C163.52 8.17554 163.896 8.21499 164.311 8.25444C164.745 8.27416 165.052 8.28402 165.23 8.28402C165.664 8.28402 166.06 8.2643 166.415 8.22485C166.771 8.1854 167.058 8.15582 167.275 8.1361V11.8047C167.631 10.5819 168.144 9.65483 168.816 9.02367C169.646 8.25444 170.743 7.86982 172.107 7.86982C172.048 8.38264 172.008 9.02367 171.988 9.7929C171.968 10.5424 171.959 11.2426 171.959 11.8935L171.692 12.1302C171.514 11.9921 171.287 11.8935 171.01 11.8343C170.733 11.7751 170.457 11.7456 170.18 11.7456C169.508 11.7456 168.925 11.9231 168.431 12.2781C167.957 12.6134 167.631 13.0868 167.453 13.6982C167.374 13.9152 167.324 14.211 167.305 14.5858C167.285 14.9408 167.275 15.3649 167.275 15.858V22.4852C166.939 22.4458 166.692 22.426 166.534 22.426C165.842 22.3669 165.407 22.3373 165.23 22.3373C164.795 22.3373 164.4 22.357 164.044 22.3965C163.688 22.4359 163.402 22.4655 163.184 22.4852Z" fill="#002868"/>
<path d="M175.358 14.2604V2.18935C175.694 2.18935 176.129 2.21894 176.662 2.27811C177.196 2.31755 177.502 2.33728 177.581 2.33728C177.917 2.33728 178.194 2.32742 178.411 2.30769C179.261 2.2288 179.725 2.18935 179.804 2.18935V11.9231C179.804 12.6726 179.804 13.4122 179.804 14.142C179.824 14.8718 179.903 15.6114 180.041 16.3609C180.18 17.0907 180.338 17.6923 180.516 18.1657C180.713 18.6193 181.069 19.0927 181.583 19.5858C182.492 20.4339 183.618 20.858 184.962 20.858C186.365 20.858 187.462 20.5917 188.253 20.0592C189.043 19.5266 189.705 18.5996 190.239 17.2781C190.476 16.7061 190.624 15.8974 190.683 14.8521C190.743 13.8067 190.772 12.574 190.772 11.1538V2.18935L191.958 2.27811L193.144 2.18935V12.7219C193.144 14.8915 193.005 16.4793 192.729 17.4852C192.294 19.0828 191.385 20.355 190.002 21.3018C189.251 21.854 188.391 22.2485 187.423 22.4852C186.454 22.7416 185.446 22.8698 184.399 22.8698C182.344 22.8698 180.605 22.5247 179.182 21.8343C177.463 20.9862 176.346 19.6746 175.832 17.8994C175.674 17.3669 175.555 16.785 175.476 16.1538C175.397 15.503 175.358 14.8718 175.358 14.2604Z" fill="#002868"/>
<path d="M207.767 6.00592H207.323C207.026 5.19724 206.592 4.56607 206.019 4.11243C205.445 3.65878 204.744 3.43195 203.914 3.43195C202.807 3.43195 201.987 3.69822 201.453 4.23077C200.92 4.74359 200.653 5.44379 200.653 6.33136C200.653 7.39645 201.424 8.35306 202.965 9.20118C205.771 10.7396 207.224 11.5483 207.323 11.6272C208.884 12.8501 209.665 14.428 209.665 16.3609C209.665 18.2544 208.933 19.8126 207.471 21.0355C206.009 22.2584 204.121 22.8698 201.809 22.8698C200.94 22.8698 200.09 22.7613 199.26 22.5444C198.45 22.3471 197.709 22.0316 197.037 21.5976C197.274 20.7692 197.452 20.0986 197.57 19.5858C197.689 19.073 197.797 18.4911 197.896 17.8402H198.459C198.677 18.8659 199.151 19.6647 199.882 20.2367C200.614 20.8087 201.503 21.0947 202.55 21.0947C203.538 21.0947 204.359 20.8284 205.011 20.2959C205.683 19.7633 206.019 19.0039 206.019 18.0178C206.019 16.7554 205.258 15.7101 203.736 14.8817C202.313 14.1322 200.9 13.3826 199.497 12.6331C197.956 11.4694 197.185 9.88166 197.185 7.86982C197.185 6.07495 197.758 4.61539 198.904 3.49112C200.149 2.26824 201.859 1.6568 204.032 1.6568C205.021 1.6568 205.949 1.80473 206.819 2.10059C207.708 2.39645 208.341 2.72189 208.716 3.07692C208.499 3.64892 208.331 4.12229 208.212 4.49704C208.015 5.16765 207.866 5.67061 207.767 6.00592Z" fill="#002868"/>
<path d="M222.797 16.3018H215.89C215.257 18.0769 214.793 19.3886 214.497 20.2367C214.22 21.0651 213.993 21.7949 213.815 22.426L212.421 22.3373L210.999 22.426L219.477 1.92308L220.603 2.01183L221.73 1.92308L230 22.4852C229.644 22.4852 229.16 22.4556 228.547 22.3965C227.935 22.357 227.569 22.3373 227.451 22.3373C227.095 22.3373 226.611 22.357 225.998 22.3965C225.386 22.4556 225.02 22.4852 224.901 22.4852C224.467 21.0848 224.131 20.0296 223.893 19.3195C223.518 18.1755 223.152 17.1696 222.797 16.3018ZM216.69 14.497H222.115L219.477 7.60355L216.69 14.497Z" fill="#002868"/>
</svg>
