<svg width="20" height="20" viewBox="0 0 20 20" fill="none" xmlns="http://www.w3.org/2000/svg">
<path d="M14.9999 3.125H13.9583V2.5C13.9583 2.33424 13.8924 2.17527 13.7752 2.05806C13.658 1.94085 13.499 1.875 13.3333 1.875C13.1675 1.875 13.0086 1.94085 12.8913 2.05806C12.7741 2.17527 12.7083 2.33424 12.7083 2.5V3.125H7.29162V2.5C7.29162 2.33424 7.22577 2.17527 7.10856 2.05806C6.99135 1.94085 6.83238 1.875 6.66662 1.875C6.50085 1.875 6.34188 1.94085 6.22467 2.05806C6.10746 2.17527 6.04162 2.33424 6.04162 2.5V3.125H4.99995C4.57773 3.07606 4.14992 3.12323 3.7485 3.26297C3.34709 3.40272 2.98247 3.63142 2.68192 3.93197C2.38137 4.23252 2.15266 4.59714 2.01292 4.99855C1.87318 5.39997 1.82601 5.82778 1.87495 6.25V15C1.82601 15.4222 1.87318 15.85 2.01292 16.2514C2.15266 16.6529 2.38137 17.0175 2.68192 17.318C2.98247 17.6186 3.34709 17.8473 3.7485 17.987C4.14992 18.1268 4.57773 18.1739 4.99995 18.125H14.9999C15.4222 18.1739 15.85 18.1268 16.2514 17.987C16.6528 17.8473 17.0174 17.6186 17.318 17.318C17.6185 17.0175 17.8472 16.6529 17.987 16.2514C18.1267 15.85 18.1739 15.4222 18.1249 15V6.25C18.1739 5.82778 18.1267 5.39997 17.987 4.99855C17.8472 4.59714 17.6185 4.23252 17.318 3.93197C17.0174 3.63142 16.6528 3.40272 16.2514 3.26297C15.85 3.12323 15.4222 3.07606 14.9999 3.125ZM4.99995 4.375H6.04162V5C6.04162 5.16576 6.10746 5.32473 6.22467 5.44194C6.34188 5.55915 6.50085 5.625 6.66662 5.625C6.83238 5.625 6.99135 5.55915 7.10856 5.44194C7.22577 5.32473 7.29162 5.16576 7.29162 5V4.375H12.7083V5C12.7083 5.16576 12.7741 5.32473 12.8913 5.44194C13.0086 5.55915 13.1675 5.625 13.3333 5.625C13.499 5.625 13.658 5.55915 13.7752 5.44194C13.8924 5.32473 13.9583 5.16576 13.9583 5V4.375H14.9999C16.3141 4.375 16.8749 4.93583 16.8749 6.25V6.875H3.12495V6.25C3.12495 4.93583 3.68578 4.375 4.99995 4.375ZM14.9999 16.875H4.99995C3.68578 16.875 3.12495 16.3142 3.12495 15V8.125H16.8749V15C16.8749 16.3142 16.3141 16.875 14.9999 16.875ZM12.5249 10.6667C12.583 10.7247 12.6291 10.7936 12.6605 10.8695C12.692 10.9453 12.7081 11.0266 12.7081 11.1087C12.7081 11.1909 12.692 11.2722 12.6605 11.348C12.6291 11.4239 12.583 11.4928 12.5249 11.5508L9.74995 14.3333C9.69203 14.3915 9.6232 14.4376 9.54741 14.4691C9.47162 14.5006 9.39035 14.5168 9.30828 14.5168C9.22621 14.5168 9.14495 14.5006 9.06915 14.4691C8.99336 14.4376 8.92453 14.3915 8.86662 14.3333L7.47495 12.9417C7.36455 12.8232 7.30445 12.6665 7.3073 12.5046C7.31016 12.3426 7.37575 12.1882 7.49026 12.0736C7.60477 11.9591 7.75926 11.8935 7.92118 11.8907C8.0831 11.8878 8.2398 11.9479 8.35828 12.0583L9.30578 13.005L11.6391 10.6717C11.6968 10.6129 11.7655 10.5661 11.8414 10.5341C11.9172 10.502 11.9987 10.4852 12.081 10.4848C12.1633 10.4843 12.2449 10.5001 12.3211 10.5314C12.3973 10.5626 12.4666 10.6086 12.5249 10.6667Z" fill="#002868"/>
</svg>
