<svg width="43" height="42" viewBox="0 0 43 42" fill="none" xmlns="http://www.w3.org/2000/svg">
<g filter="url(#filter0_ii_11048_10443)">
<path d="M1.5 11.9201C1.5 8.1864 1.5 6.31956 2.22662 4.89348C2.86578 3.63907 3.88565 2.6192 5.14006 1.98004C6.56614 1.25342 8.43298 1.25342 12.1667 1.25342H30.8333C34.567 1.25342 36.4339 1.25342 37.8599 1.98004C39.1143 2.6192 40.1342 3.63907 40.7734 4.89348C41.5 6.31956 41.5 8.1864 41.5 11.9201V30.5868C41.5 34.3204 41.5 36.1873 40.7734 37.6134C40.1342 38.8678 39.1143 39.8876 37.8599 40.5268C36.4339 41.2534 34.567 41.2534 30.8333 41.2534H12.1667C8.43298 41.2534 6.56614 41.2534 5.14006 40.5268C3.88565 39.8876 2.86578 38.8678 2.22662 37.6134C1.5 36.1873 1.5 34.3204 1.5 30.5868V11.9201Z" fill="#F9F8FF"/>
<path d="M30.833 0.905762C32.6941 0.905762 34.1111 0.906284 35.2402 0.998535C36.3733 1.09111 37.2475 1.27804 38.0176 1.67041C39.3373 2.34286 40.4106 3.41609 41.083 4.73584C41.4754 5.50596 41.6623 6.38008 41.7549 7.51318C41.8471 8.64228 41.8477 10.0593 41.8477 11.9204V30.5864C41.8477 32.4475 41.8471 33.8646 41.7549 34.9937C41.6623 36.1268 41.4754 37.0009 41.083 37.771C40.4106 39.0907 39.3373 40.164 38.0176 40.8364C37.2475 41.2288 36.3733 41.4157 35.2402 41.5083C34.1111 41.6006 32.6941 41.6011 30.833 41.6011H12.167C10.3059 41.6011 8.88887 41.6006 7.75977 41.5083C6.62666 41.4157 5.75254 41.2288 4.98242 40.8364C3.66267 40.164 2.58944 39.0907 1.91699 37.771C1.52462 37.0009 1.3377 36.1268 1.24512 34.9937C1.15287 33.8646 1.15234 32.4475 1.15234 30.5864V11.9204C1.15234 10.0593 1.15287 8.64228 1.24512 7.51318C1.3377 6.38008 1.52462 5.50596 1.91699 4.73584C2.58944 3.41609 3.66267 2.34286 4.98242 1.67041C5.75254 1.27804 6.62666 1.09111 7.75977 0.998535C8.88887 0.906284 10.3059 0.905762 12.167 0.905762H30.833Z" stroke="#F1F2F9" stroke-width="0.694444"/>
<path d="M28.8862 31.4537H12.7069C11.9299 31.4537 11.3 30.8238 11.3 30.0468V12.4606C11.3 11.6836 11.9299 11.0537 12.7069 11.0537H24.6655C25.4425 11.0537 26.0724 11.6836 26.0724 12.4606V18.4399M28.8862 31.4537C27.3321 31.4537 26.0727 30.1939 26.0727 28.6399V18.0882H29.2701C30.6123 18.0882 31.7003 19.1761 31.7003 20.5183V28.6399C31.7003 30.1939 30.4403 31.4537 28.8862 31.4537ZM15.8724 23.7158H21.5M15.8724 27.233H21.5M15.5203 16.6813C15.5203 15.9043 16.1502 15.2744 16.9272 15.2744H20.4445C21.2215 15.2744 21.8513 15.9043 21.8513 16.6813V18.7917C21.8513 19.5687 21.2215 20.1986 20.4445 20.1986H16.9272C16.1502 20.1986 15.5203 19.5687 15.5203 18.7917V16.6813Z" stroke="#002868" stroke-width="2" stroke-linecap="round" stroke-linejoin="round"/>
</g>
<defs>
<filter id="filter0_ii_11048_10443" x="0.805542" y="-1.94092" width="41.3889" height="45.1387" filterUnits="userSpaceOnUse" color-interpolation-filters="sRGB">
<feFlood flood-opacity="0" result="BackgroundImageFix"/>
<feBlend mode="normal" in="SourceGraphic" in2="BackgroundImageFix" result="shape"/>
<feColorMatrix in="SourceAlpha" type="matrix" values="0 0 0 0 0 0 0 0 0 0 0 0 0 0 0 0 0 0 127 0" result="hardAlpha"/>
<feOffset dy="-2.5"/>
<feGaussianBlur stdDeviation="2.08333"/>
<feComposite in2="hardAlpha" operator="arithmetic" k2="-1" k3="1"/>
<feColorMatrix type="matrix" values="0 0 0 0 0.403797 0 0 0 0 0.377879 0 0 0 0 0.70963 0 0 0 0.2 0"/>
<feBlend mode="normal" in2="shape" result="effect1_innerShadow_11048_10443"/>
<feColorMatrix in="SourceAlpha" type="matrix" values="0 0 0 0 0 0 0 0 0 0 0 0 0 0 0 0 0 0 127 0" result="hardAlpha"/>
<feOffset dy="1.25"/>
<feGaussianBlur stdDeviation="0.833333"/>
<feComposite in2="hardAlpha" operator="arithmetic" k2="-1" k3="1"/>
<feColorMatrix type="matrix" values="0 0 0 0 1 0 0 0 0 1 0 0 0 0 1 0 0 0 0.4 0"/>
<feBlend mode="normal" in2="effect1_innerShadow_11048_10443" result="effect2_innerShadow_11048_10443"/>
</filter>
</defs>
</svg>
