<svg width="20" height="20" viewBox="0 0 20 20" fill="none" xmlns="http://www.w3.org/2000/svg">
<g clip-path="url(#clip0_11173_1435)">
<path d="M18.125 1.25H16.5625V0.9375C16.5625 0.420586 16.142 0 15.625 0C15.108 0 14.6875 0.420586 14.6875 0.9375V1.25H5.3125V0.9375C5.3125 0.420586 4.89195 0 4.375 0C3.85805 0 3.4375 0.420586 3.4375 0.9375V1.25H1.875C1.18574 1.25 0.625 1.81074 0.625 2.5V15.625C0.625 16.3143 1.18574 16.875 1.875 16.875H5.9375C6.02038 16.875 6.09987 16.8421 6.15847 16.7835C6.21708 16.7249 6.25 16.6454 6.25 16.5625C6.25 16.4796 6.21708 16.4001 6.15847 16.3415C6.09987 16.2829 6.02038 16.25 5.9375 16.25H1.875C1.53039 16.25 1.25 15.9696 1.25 15.625V5H18.75V15.625C18.75 15.9696 18.4696 16.25 18.125 16.25H16.875C16.7921 16.25 16.7126 16.2829 16.654 16.3415C16.5954 16.4001 16.5625 16.4796 16.5625 16.5625C16.5625 16.6454 16.5954 16.7249 16.654 16.7835C16.7126 16.8421 16.7921 16.875 16.875 16.875H18.125C18.8143 16.875 19.375 16.3143 19.375 15.625V2.5C19.375 1.81074 18.8143 1.25 18.125 1.25ZM15.3125 0.9375C15.3125 0.765195 15.4527 0.625 15.625 0.625C15.7973 0.625 15.9375 0.765195 15.9375 0.9375V2.5C15.9375 2.6723 15.7973 2.8125 15.625 2.8125C15.4527 2.8125 15.3125 2.6723 15.3125 2.5V0.9375ZM4.0625 0.9375C4.0625 0.765195 4.2027 0.625 4.375 0.625C4.5473 0.625 4.6875 0.765195 4.6875 0.9375V2.5C4.6875 2.6723 4.5473 2.8125 4.375 2.8125C4.2027 2.8125 4.0625 2.6723 4.0625 2.5V0.9375ZM1.25 4.375V2.5C1.25 2.15539 1.53039 1.875 1.875 1.875H3.4375V2.5C3.4375 3.01691 3.85805 3.4375 4.375 3.4375C4.89195 3.4375 5.3125 3.01691 5.3125 2.5V1.875H14.6875V2.5C14.6875 3.01691 15.108 3.4375 15.625 3.4375C16.142 3.4375 16.5625 3.01691 16.5625 2.5V1.875H18.125C18.4696 1.875 18.75 2.15539 18.75 2.5V4.375H1.25Z" fill="#002868"/>
<path d="M14.9829 15.871C14.9593 15.8621 15.0307 15.8809 14.0256 15.6291C13.8278 15.5521 13.6513 15.4288 13.511 15.2695C13.3707 15.1102 13.2706 14.9195 13.2192 14.7135L12.5 11.8368V10.9378C12.5 10.8549 12.4671 10.7754 12.4085 10.7168C12.3499 10.6582 12.2704 10.6253 12.1875 10.6253C12.1046 10.6253 12.0251 10.6582 11.9665 10.7168C11.9079 10.7754 11.875 10.8549 11.875 10.9378V11.5628C10.2458 11.5628 10.1705 11.5945 9.85738 11.4646C9.39504 11.2734 9.0625 10.8244 9.0625 10.2525V9.94679C9.0625 8.88706 7.77215 8.3487 7.02004 9.10081L4.0625 12.0584C3.64555 12.4753 3.64547 13.1503 4.0625 13.5673L10.404 19.9088C10.433 19.9378 10.4675 19.9609 10.5054 19.9766C10.5433 19.9923 10.584 20.0003 10.625 20.0003H15.3125C15.8295 20.0003 16.25 19.5798 16.25 19.0628V17.6999C16.25 16.8904 15.7407 16.1554 14.9829 15.871ZM13.3147 15.9378H13.1662C12.8681 15.9385 12.5785 15.8385 12.3442 15.6541C12.1099 15.4697 11.9447 15.2117 11.8753 14.9218L11.2143 12.1878H11.9435L12.6129 14.8651C12.7194 15.2915 12.9667 15.6694 13.3147 15.9378ZM7.46199 9.54277C7.68547 9.31929 8.04715 9.31921 8.27031 9.54304C8.47133 9.74355 8.4375 9.94886 8.4375 10.2525C8.4375 11.0819 8.92672 11.756 9.6182 12.0421C10.0033 12.2018 10.283 12.1878 10.5712 12.1878L11.2678 15.0687C11.4805 15.9484 12.2612 16.5628 13.1663 16.5628H14.9816C15.3738 16.8003 15.625 17.2315 15.625 17.6999V18.1253H11.3794L6.67777 13.4236C7.38449 12.5164 7.38449 11.2342 6.67777 10.327L7.46199 9.54277ZM6.23148 10.7733C6.7007 11.43 6.7007 12.3206 6.23148 12.9773L5.12945 11.8753L6.23148 10.7733ZM15.3125 19.3753H10.7544L4.50441 13.1253C4.46335 13.0843 4.43077 13.0356 4.40855 12.9819C4.38632 12.9283 4.37488 12.8708 4.37488 12.8128C4.37488 12.7548 4.38632 12.6973 4.40855 12.6437C4.43077 12.59 4.46335 12.5413 4.50441 12.5003L4.68746 12.3172L11.029 18.6588C11.058 18.6878 11.0925 18.7108 11.1304 18.7265C11.1683 18.7422 11.209 18.7503 11.25 18.7503H15.625V19.0628C15.625 19.2351 15.4848 19.3753 15.3125 19.3753Z" fill="#002868"/>
</g>
<defs>
<clipPath id="clip0_11173_1435">
<rect width="20" height="20" fill="white"/>
</clipPath>
</defs>
</svg>
