<svg width="40" height="40" viewBox="0 0 40 40" fill="none" xmlns="http://www.w3.org/2000/svg">
<path d="M5.87891 29.4141H34.1211M5.87891 29.4141V34.1211H34.1211V29.4141M5.87891 29.4141L1.17188 10.5859L9.70367 17.4114C9.50908 17.8566 9.40882 18.3374 9.40922 18.8233C9.40922 20.773 10.9898 22.3536 12.9395 22.3536C14.8892 22.3536 16.4698 20.773 16.4698 18.8233C16.4698 17.6301 15.8773 16.576 14.971 15.937L20 5.87891L25.0289 15.9369C24.1227 16.5759 23.5302 17.6301 23.5302 18.8232C23.5302 20.773 25.1107 22.3535 27.0605 22.3535C29.0102 22.3535 30.5908 20.7729 30.5908 18.8232C30.5912 18.3373 30.491 17.8566 30.2963 17.4113L38.8281 10.5859L34.1211 29.4141" stroke="black" stroke-miterlimit="10" stroke-linejoin="round"/>
</svg>
