<svg width="20" height="22" viewBox="0 0 20 22" fill="none" xmlns="http://www.w3.org/2000/svg">
<g clip-path="url(#clip0_11177_2908)">
<path d="M8.05279 9.47548C8.98664 9.47548 9.89952 9.19856 10.676 8.67974C11.4525 8.16092 12.0576 7.42351 12.415 6.56074C12.7724 5.69798 12.8659 4.74862 12.6837 3.83271C12.5015 2.91681 12.0518 2.07549 11.3915 1.41516C10.7312 0.75483 9.88984 0.305138 8.97393 0.122953C8.05803 -0.0592316 7.10867 0.0342724 6.2459 0.391641C5.38314 0.74901 4.64572 1.35419 4.1269 2.13066C3.60808 2.90713 3.33116 3.82001 3.33116 4.75385C3.33175 6.00593 3.8294 7.20655 4.71475 8.0919C5.6001 8.97724 6.80072 9.47489 8.05279 9.47548ZM8.05279 1.14757C8.76604 1.14757 9.46328 1.35908 10.0563 1.75534C10.6494 2.1516 11.1116 2.71483 11.3846 3.37379C11.6575 4.03275 11.7289 4.75786 11.5898 5.45741C11.4506 6.15696 11.1072 6.79953 10.6028 7.30388C10.0985 7.80823 9.45589 8.15169 8.75634 8.29084C8.05679 8.42999 7.33169 8.35857 6.67273 8.08562C6.01376 7.81267 5.45054 7.35045 5.05428 6.7574C4.65801 6.16435 4.44651 5.46711 4.44651 4.75385C4.4469 3.79753 4.82698 2.88049 5.5032 2.20426C6.17942 1.52804 7.09647 1.14797 8.05279 1.14757ZM11.0769 11.1968C11.1262 11.0573 11.1181 10.9039 11.0544 10.7703C10.9906 10.6368 10.8765 10.534 10.7371 10.4845C9.5223 10.0561 8.22253 9.92516 6.94674 10.1027C5.67094 10.2802 4.45631 10.761 3.40467 11.5048C2.35303 12.2486 1.49505 13.2337 0.902656 14.3775C0.310262 15.5213 0.000725479 16.7904 0 18.0785C0 18.2264 0.0587545 18.3683 0.163338 18.4728C0.267922 18.5774 0.409768 18.6362 0.557672 18.6362C0.705576 18.6362 0.847422 18.5774 0.952006 18.4728C1.05659 18.3683 1.11534 18.2264 1.11534 18.0785C1.11559 16.9687 1.38199 15.8751 1.8922 14.8894C2.40242 13.9038 3.14156 13.0549 4.04762 12.414C4.95368 11.773 6.00024 11.3587 7.09951 11.2058C8.19877 11.0529 9.31867 11.1658 10.3653 11.5352C10.5045 11.5843 10.6576 11.5763 10.7909 11.5129C10.9243 11.4495 11.0271 11.3358 11.0769 11.1968ZM14.7151 14.1614C14.2698 14.1616 13.8346 14.2937 13.4644 14.5412C13.0943 14.7887 12.8058 15.1404 12.6355 15.5518C12.4652 15.9632 12.4207 16.4159 12.5077 16.8526C12.5947 17.2893 12.8092 17.6904 13.1241 18.0052C13.439 18.3201 13.8402 18.5344 14.2769 18.6212C14.7136 18.708 15.1663 18.6634 15.5776 18.493C15.989 18.3225 16.3406 18.034 16.588 17.6637C16.8353 17.2935 16.9674 16.8582 16.9674 16.4129C16.967 15.8158 16.7295 15.2432 16.3072 14.821C15.8849 14.3989 15.3123 14.1616 14.7151 14.1614ZM14.7151 17.5491C14.4904 17.5489 14.2708 17.4822 14.0841 17.3573C13.8974 17.2323 13.7518 17.0548 13.666 16.8472C13.5801 16.6396 13.5577 16.4112 13.6016 16.1908C13.6455 15.9705 13.7538 15.7681 13.9127 15.6093C14.0717 15.4505 14.2741 15.3423 14.4945 15.2985C14.7149 15.2548 14.9433 15.2773 15.1508 15.3633C15.3584 15.4493 15.5358 15.595 15.6606 15.7818C15.7854 15.9686 15.852 16.1882 15.852 16.4129C15.8518 16.7143 15.732 17.0033 15.5188 17.2164C15.3056 17.4294 15.0165 17.5491 14.7151 17.5491Z" fill="#002868"/>
<path d="M19.5096 16.7297C19.5236 16.5183 19.5236 16.3061 19.5096 16.0947L19.9557 15.0069C20.0073 14.8815 20.0115 14.7417 19.9676 14.6135C19.7343 13.9328 19.3712 13.3038 18.8984 12.7613C18.8092 12.6594 18.6861 12.5933 18.5519 12.5754L17.3845 12.4193C17.2083 12.3014 17.0245 12.1953 16.8343 12.1018L16.116 11.1693C16.0332 11.0621 15.9143 10.9887 15.7814 10.9626C15.0753 10.8237 14.3489 10.8237 13.6429 10.9626C13.51 10.9887 13.3911 11.0621 13.3083 11.1693L12.5893 12.1025C12.3989 12.1959 12.2151 12.3019 12.039 12.42L10.8724 12.5754C10.7381 12.5933 10.615 12.6594 10.5259 12.7613C10.0531 13.3038 9.68996 13.9328 9.45662 14.6135C9.41272 14.7417 9.41695 14.8815 9.46851 15.0069L9.91465 16.0962C9.90065 16.3076 9.90065 16.5198 9.91465 16.7312L9.46851 17.819C9.41695 17.9444 9.41272 18.0842 9.45662 18.2124C9.68992 18.8931 10.053 19.5221 10.5259 20.0646C10.615 20.1666 10.7381 20.2326 10.8724 20.2505L12.0398 20.4066C12.216 20.5245 12.3998 20.6305 12.59 20.7241L13.3083 21.6566C13.3911 21.7638 13.51 21.8372 13.6429 21.8633C14.3489 22.0023 15.0753 22.0023 15.7814 21.8633C15.9143 21.8372 16.0332 21.7638 16.116 21.6566L16.835 20.7234C17.0253 20.63 17.2091 20.5239 17.3852 20.4059L18.5519 20.2505C18.6861 20.2326 18.8093 20.1666 18.8984 20.0646C19.372 19.5223 19.7359 18.8933 19.9699 18.2124C20.0138 18.0842 20.0095 17.9444 19.958 17.819L19.5096 16.7297ZM18.192 19.1731L17.1071 19.3218C17.017 19.3338 16.9312 19.3678 16.8573 19.4207C16.6653 19.557 16.4609 19.675 16.2468 19.7731C16.164 19.8104 16.0917 19.8676 16.0364 19.9397L15.3672 20.8067C14.9346 20.8713 14.4948 20.8713 14.0622 20.8067L13.393 19.9397C13.3377 19.8676 13.2654 19.8104 13.1826 19.7731C12.9685 19.675 12.7642 19.557 12.5721 19.4207C12.4982 19.3678 12.4124 19.3338 12.3223 19.3218L11.2375 19.1731C10.9653 18.8306 10.7453 18.4497 10.5846 18.0428L11.001 17.0301C11.0356 16.9462 11.0491 16.855 11.0404 16.7647C11.0179 16.5302 11.0179 16.2942 11.0404 16.0598C11.0491 15.9694 11.0356 15.8783 11.001 15.7943L10.5839 14.7823C10.7444 14.3754 10.9644 13.9945 11.2367 13.6521L12.3216 13.5034C12.4117 13.4914 12.4975 13.4574 12.5714 13.4045C12.7634 13.2682 12.9678 13.1502 13.1819 13.052C13.2647 13.0148 13.337 12.9575 13.3923 12.8855L14.0615 12.0185C14.4941 11.9538 14.9339 11.9538 15.3665 12.0185L16.0357 12.8855C16.091 12.9575 16.1633 13.0148 16.2461 13.052C16.4602 13.1502 16.6645 13.2682 16.8566 13.4045C16.9305 13.4574 17.0163 13.4914 17.1064 13.5034L18.1913 13.6521C18.4634 13.9946 18.6834 14.3755 18.8441 14.7823L18.4277 15.795C18.3931 15.879 18.3796 15.9701 18.3883 16.0605C18.4108 16.2949 18.4108 16.531 18.3883 16.7654C18.3796 16.8558 18.3931 16.9469 18.4277 17.0308L18.8448 18.0428C18.6843 18.4498 18.4643 18.8306 18.192 19.1731Z" fill="#002868"/>
</g>
<defs>
<clipPath id="clip0_11177_2908">
<rect width="20" height="21.9353" fill="white" transform="translate(0 0.0322266)"/>
</clipPath>
</defs>
</svg>
