<svg width="68" height="68" viewBox="0 0 68 68" fill="none" xmlns="http://www.w3.org/2000/svg">
<path d="M57.7979 57.8278C51.9108 63.7308 44.0325 67.224 35.7052 67.6236C35.6905 67.6089 35.6758 67.6236 35.6631 67.6089C35.0652 67.6678 34.4421 67.6678 33.8147 67.6678C24.9379 67.6527 16.4303 64.1134 10.1621 57.8278C-9.99581 37.672 2.62103 3.39624 30.4968 0.486762C30.4968 0.486762 30.5116 0.472026 30.5263 0.486762C32.635 0.290296 34.7568 0.279729 36.8673 0.455183C39.1894 0.634131 41.4989 1.09518 43.7452 1.76676C49.0556 3.36656 53.8847 6.26187 57.7979 10.192C70.92 23.3141 70.9726 44.6552 57.7979 57.8278Z" fill="#DEDFFB"/>
<path d="M33.8105 67.6678C9.86525 60.4278 1.74525 29.771 19.8653 11.651C22.998 8.51159 26.7201 6.02208 30.8178 4.32548C34.9155 2.62887 39.3081 1.75861 43.7431 1.76468C45.8126 2.37521 47.8379 3.20889 49.7726 4.251C52.7307 5.81637 55.4356 7.81928 57.7958 10.192C79.0695 31.4657 63.8737 67.6678 33.8147 67.6678H33.8105Z" fill="#E9E7FC"/>
<path d="M40.5557 67.0278C37.6235 65.4625 34.9395 63.471 32.5915 61.1183C13.5262 42.0531 23.5915 9.58571 49.7704 4.25098C52.7285 5.81635 55.4334 7.81926 57.7936 10.192C76.9683 29.3668 66.6083 61.8657 40.5557 67.0278Z" fill="#F3F1FC"/>
<path d="M62.0126 43.3209C57.6589 51.2851 51.6695 55.8262 43.3095 51.2577C34.9495 46.6893 31.701 36.5251 36.0547 28.563C40.4084 20.6009 50.7158 17.8451 59.0737 22.4156C67.4316 26.9862 66.3663 35.3567 62.0126 43.3209Z" fill="#F8F9FE"/>
<path d="M34.8885 67.5205C35.1411 67.5352 35.3937 67.5794 35.6611 67.6089C34.6969 67.7057 32.92 67.6699 31.9558 67.6236C32.4042 67.5394 33.1916 67.4299 33.6674 67.4299C33.8906 66.8805 34.1137 66.3583 34.3516 65.8236C32.9516 65.6741 31.539 65.5984 30.0948 65.1078C31.5685 64.7352 33.1158 64.7647 34.6337 64.7962C34.6975 64.8135 34.7622 64.8276 34.8274 64.8383C35.0379 64.3941 35.2295 63.9626 35.4527 63.531C34.0232 63.232 32.6106 63.0089 31.179 62.352C32.6695 62.1457 34.2169 62.3247 35.7221 62.5183C35.7811 62.5478 35.8548 62.5605 35.9137 62.592C36.3158 61.8026 36.7348 61.0299 37.1642 60.2699C35.8842 59.9415 34.5748 59.7647 33.1895 59.451C34.6485 58.9457 36.2127 59.051 37.6864 59.331C38.1621 58.5289 38.6548 57.7394 39.16 56.9352C38.2716 56.6931 39.3495 56.6468 34.3074 55.7731C35.9642 55.112 38.2063 55.3331 39.7116 56.0868C40.2169 55.2826 40.7369 54.5247 41.2906 53.7647C41.2442 53.7499 41.2274 53.7352 41.2 53.7057C39.92 52.9605 38.5495 52.5141 37.0611 51.9794C38.6864 51.6426 40.5474 52.1268 41.8842 52.931C42.4653 52.1415 43.0611 51.3373 43.6695 50.5794C41.3411 49.4089 42.5642 49.9415 39.3685 48.7478C40.9306 48.4341 42.5685 48.8531 43.9979 49.5668C44.1032 49.6404 44.2064 49.7141 44.3264 49.7752C44.9958 48.9541 45.6948 48.1373 46.3937 47.3478C45.1895 46.6489 43.8485 46.2026 42.4358 45.6805C43.9979 45.3689 45.6211 45.8004 47.0653 46.5015C47.08 46.5141 47.1074 46.5436 47.139 46.5436C47.2063 46.4741 46.6927 47.0005 49.3116 44.2826C48.1664 43.672 46.9453 43.2257 45.6358 42.7478C47.1537 42.451 48.7306 42.8383 50.1158 43.5057C50.8737 42.7773 51.6506 42.0636 52.4379 41.3647C51.4421 40.4868 50.3116 39.8004 49.1032 39.0131C50.6379 39.0552 52.0211 39.7562 53.2127 40.7099C53.9706 40.0383 54.76 39.3983 55.5643 38.7731C54.8064 37.7773 53.8674 36.8994 52.9158 35.9457C54.2695 36.2573 55.4 37.1204 56.339 38.1478C57.2021 37.4952 58.08 36.8531 58.9748 36.2573C58.3327 35.112 57.5306 34.0994 56.68 32.9836C57.9916 33.4889 59.0169 34.5162 59.8085 35.6931C60.299 35.3499 60.8042 34.992 61.3242 34.6805L61.3116 34.6657C60.9095 33.251 60.2085 31.9857 59.5095 30.571C60.8043 31.392 61.6527 32.7141 62.219 34.1436C62.7242 33.8173 63.2464 33.5036 63.7664 33.192C63.5579 31.8804 63.1411 30.6299 62.7095 29.2762C63.7074 30.1541 64.3327 31.3752 64.6885 32.6868C65.1811 32.4025 65.6737 32.1183 66.1621 31.8657C65.9558 30.5857 65.539 29.3647 65.1221 28.0257C66.1053 28.8889 66.7137 30.0952 67.0864 31.3604C67.2211 31.2868 67.3853 31.2131 67.5327 31.152C67.579 31.5836 67.6085 32.0004 67.6232 32.4025C67.5179 32.4468 67.4295 32.5078 67.3242 32.5499C67.459 34.0236 67.3095 35.5436 66.5664 36.7941C66.5369 35.5141 66.5053 34.2931 66.3558 33.1015C65.8653 33.3541 65.4043 33.6068 64.9285 33.8762C65.0485 35.3352 64.899 36.8236 64.1706 38.0594C64.1243 36.7941 64.1095 35.6173 63.96 34.4573C63.4842 34.7247 63.0085 35.0215 62.5327 35.3204C62.7558 36.5562 62.7706 37.851 62.28 39.0257C62.1081 37.9667 61.8989 36.9141 61.6527 35.8699C61.2064 36.1394 60.7895 36.4383 60.3579 36.7204C60.9243 38.0005 61.2506 39.3983 60.9832 40.7689C60.5074 39.5183 60.0758 38.371 59.5095 37.2994C58.6758 37.8657 57.8569 38.4762 57.0379 39.0868C57.7958 40.2931 58.3179 41.6468 58.2295 43.0762C57.5895 41.8699 56.979 40.7541 56.2506 39.7268C55.4906 40.3078 54.7769 40.9015 54.0464 41.512C54.9095 42.4952 55.5937 43.6278 55.7727 44.9078C54.939 43.9247 54.1811 42.9857 53.3179 42.152C52.5727 42.8089 51.8442 43.4783 51.1285 44.1626C52.139 44.8783 53.0042 45.8299 53.4653 46.9773C52.4232 46.2026 51.4569 45.4426 50.4127 44.8468C49.9706 45.2931 50.0106 45.1415 48.1221 47.2299C49.0443 47.9457 49.8337 48.8215 50.2653 49.9099C49.3116 49.1941 48.4042 48.4952 47.4653 47.9141C46.7074 48.7626 45.979 49.611 45.2632 50.4741C46.0969 51.1583 46.8106 51.9626 47.2 52.9752C46.3495 52.3352 45.5453 51.712 44.6821 51.1752C44.0716 51.9626 43.4464 52.7668 42.8506 53.6004C43.7306 54.2994 44.4885 55.1499 44.9053 56.2215C44.0656 55.5645 43.2019 54.9388 42.3158 54.3457C41.7643 55.1036 41.2421 55.8615 40.7369 56.6383C41.5411 57.1436 42.2569 57.7689 42.7621 58.5731C41.899 58.1268 41.08 57.7247 40.2611 57.3815C39.7706 58.1394 39.3095 58.8994 38.8464 59.6889C39.9621 60.091 41.0211 60.672 41.84 61.5204C40.619 61.2236 39.4885 60.8657 38.3411 60.552C37.898 61.3451 37.4664 62.1444 37.0464 62.9499C38.0442 63.291 38.9958 63.7394 39.8295 64.4236C38.699 64.3036 37.6569 64.0362 36.6148 63.7983C36.4043 64.2152 36.2127 64.6468 36.0042 65.0931C37.0148 65.331 38.0127 65.6741 38.9221 66.2552C37.76 66.2552 36.6737 66.091 35.5874 65.9562C35.3495 66.4615 35.1116 66.9983 34.8885 67.5205ZM19.8085 20.7604C19.019 21.4615 18.2 22.1604 17.3811 22.8299C17.44 22.9499 17.5158 23.0531 17.5895 23.1583C18.3053 24.5878 18.7053 26.211 18.3937 27.7731C17.2337 24.6699 17.7158 25.7583 16.5769 23.4847C15.8021 24.0804 15.0148 24.691 14.2253 25.272C14.2548 25.331 14.3137 25.3899 14.36 25.4657C15.0737 26.8952 15.4906 28.5015 15.1621 30.0804C14.6274 28.592 14.1811 27.2215 13.4506 25.9562C13.4211 25.9268 13.4064 25.8826 13.3916 25.8678C12.6169 26.4026 11.859 26.9247 11.0695 27.4468C11.8085 28.9247 12.0548 31.1689 11.3811 32.8489C10.5558 28.0699 10.4464 28.8236 10.2211 27.9962C9.41688 28.5015 8.6274 28.9941 7.80846 29.4552C8.1074 30.9436 8.21056 32.5078 7.70319 33.9647C7.39161 32.5815 7.21267 31.2699 6.88635 29.9899C6.11161 30.4068 5.33898 30.8236 4.57898 31.2257C4.59372 31.3015 4.60846 31.3752 4.63793 31.4362C4.83161 32.9394 4.99582 34.472 4.80214 35.9752C4.1474 34.5457 3.92425 33.1331 3.6253 31.7015C3.19372 31.9268 2.76214 32.1204 2.31582 32.3289C2.33056 32.4025 2.33056 32.4615 2.36003 32.5226C2.38951 34.0383 2.40635 35.5752 2.04846 37.0615C1.55582 35.6173 1.48214 34.2047 1.33267 32.8047C0.991614 32.9689 0.648456 33.1015 0.305298 33.2362C0.32214 32.8047 0.336877 32.3731 0.381087 31.9415C0.648456 31.8215 0.930561 31.6889 1.20004 31.5689C1.0653 30.4826 0.901088 29.3962 0.901088 28.2341C1.48214 29.1415 1.8253 30.1394 2.06319 31.152C2.50951 30.9436 2.94109 30.7499 3.35793 30.5415C3.12004 29.4994 2.85267 28.4573 2.73267 27.3268C3.40214 28.1457 3.84846 29.0973 4.20635 30.1099C4.99582 29.6783 5.80004 29.2615 6.5874 28.8004C6.29267 27.6678 5.93477 26.5373 5.61898 25.3015C6.48425 26.1352 7.0653 27.192 7.4674 28.3078C8.24004 27.832 9.01477 27.3857 9.77477 26.8952C9.41688 26.0615 9.02951 25.2573 8.58319 24.3941C9.3874 24.8994 10.0127 25.6152 10.52 26.4173C11.2927 25.912 12.0527 25.3899 12.8106 24.8383C12.2182 23.9524 11.5932 23.0886 10.9369 22.2489C12.0064 22.6657 12.8548 23.4278 13.5558 24.3036C14.3748 23.6931 15.1937 23.0826 15.9664 22.4573C15.4464 21.6089 14.8211 20.8068 14.1664 19.9415C15.1769 20.3289 15.9979 21.0573 16.6821 21.8931C17.5453 21.1773 18.3937 20.4489 19.2421 19.6889C18.6464 18.7373 17.9621 17.8426 17.2316 16.8762C18.32 17.3078 19.2106 18.112 19.9263 19.0341C21.8316 17.3078 22.019 17.032 22.3074 16.7415C21.6969 15.6847 20.9537 14.7331 20.1811 13.6889C21.3264 14.152 22.2653 15.0004 22.9937 16.0257C23.6779 15.312 24.3474 14.5836 24.9874 13.8236C24.1685 12.9752 23.2316 12.2173 22.2337 11.3689C23.5285 11.5604 24.6611 12.2468 25.6442 13.1099C26.2548 12.3794 26.8337 11.651 27.4295 10.9057C26.4021 10.1773 25.2864 9.56676 24.08 8.92676C25.4948 8.8215 26.8632 9.35834 28.0548 10.1015C28.68 9.29939 29.2758 8.46571 29.8569 7.64676C28.7685 7.06571 27.6232 6.63413 26.3874 6.17308C27.7558 5.9036 29.1558 6.23203 30.4211 6.7836C30.72 6.36676 31.0021 5.93518 31.2842 5.5015C30.234 5.25667 29.1767 5.04324 28.1137 4.8615C29.3053 4.38571 30.5853 4.38571 31.8358 4.6236C32.1327 4.14782 32.4316 3.67203 32.699 3.19413C31.539 3.04676 30.3621 3.03203 29.0969 2.98781C30.3327 2.25729 31.8358 2.09308 33.28 2.22781C33.5474 1.75203 33.8 1.28887 34.0548 0.798341C32.8632 0.650973 31.6421 0.619394 30.3474 0.575183C30.4064 0.545709 30.4358 0.516236 30.4948 0.486762C30.4948 0.486762 30.5116 0.472026 30.5264 0.486762C32.635 0.290296 34.7569 0.279729 36.8674 0.455183C37.7306 0.813078 38.52 1.33518 39.1306 2.03413C37.7895 1.61729 36.5706 1.20045 35.2885 0.992026C35.0358 1.48255 34.7537 1.97518 34.4716 2.46571C35.7811 2.8236 36.9874 3.43413 37.88 4.44466C36.5242 4.01308 35.2737 3.59624 33.9642 3.38782C33.6527 3.90992 33.339 4.42992 33.0127 4.93729C34.4253 5.48676 35.7664 6.35203 36.5853 7.64676C35.1706 6.94571 33.9053 6.24676 32.4906 5.84466L32.4758 5.82992C32.1495 6.33518 31.7916 6.84045 31.4653 7.34782C32.64 8.13729 33.6674 9.16466 34.1727 10.4741C33.0569 9.62571 32.0442 8.8215 30.899 8.1815C30.2885 9.0615 29.6485 9.93939 28.9916 10.8026C30.019 11.7394 30.899 12.8868 31.2106 14.2404C30.2421 13.272 29.379 12.3499 28.3832 11.592C27.7579 12.3941 27.1011 13.171 26.4464 13.9436C27.3853 15.1183 28.099 16.5183 28.1306 18.0362C27.3558 16.8468 26.6569 15.6994 25.7769 14.7015C25.0927 15.5057 24.3769 16.2804 23.6485 17.0383C24.3179 18.4236 24.7053 20.0026 24.4064 21.5204C23.9158 20.1941 23.4842 18.9899 22.8737 17.8426C22.5327 18.1731 22.4148 18.3478 20.5958 20.0026C20.6072 20.0373 20.6284 20.068 20.6569 20.091C21.3558 21.5352 21.7727 23.1436 21.459 24.7057C20.939 23.291 20.5074 21.9689 19.8085 20.7604Z" fill="#E11226"/>
</svg>
