<svg width="75" height="74" viewBox="0 0 75 74" fill="none" xmlns="http://www.w3.org/2000/svg">
<path d="M74.5919 37C74.5919 46.1757 71.2437 54.5708 65.7028 61.0286C65.3313 61.4633 64.9491 61.8887 64.5564 62.3044C58.052 69.215 48.9139 73.6185 38.7442 73.9086C37.9546 73.933 37.1643 73.9307 36.3748 73.9016C24.3713 73.4912 13.8232 67.3486 7.37865 58.127C6.33483 56.6347 5.40356 55.0668 4.59256 53.4362C2.12717 48.486 0.742126 42.9054 0.742126 37.0007C0.742126 33.3374 1.27569 29.7987 2.26769 26.4581C2.64621 25.1868 3.09348 23.937 3.60752 22.7141C5.83943 17.4053 9.28038 12.6911 13.6562 8.94718C17.7852 5.40613 22.6471 2.82327 27.8927 1.38405C31.0776 0.513166 34.3649 0.0733041 37.6666 0.0762224C43.3312 0.0668269 48.9211 1.36724 53.9999 3.87587C63.1873 8.415 70.2155 16.6634 73.1247 26.6654C73.6051 28.3147 73.9682 29.9959 74.2113 31.6964C74.4625 33.4286 74.5912 35.1997 74.5912 37.0014L74.5919 37Z" fill="#FF8800"/>
<path d="M74.5919 37.0004C74.5919 46.176 71.2437 54.5712 65.7028 61.0289C65.3313 61.4637 64.9491 61.8891 64.5564 62.3047C58.052 69.2153 48.9139 73.6188 38.7442 73.9089C37.9546 73.9334 37.1643 73.931 36.3748 73.902C31.8583 73.7509 27.4083 72.7687 23.2479 71.0046C21.9113 70.4371 20.6095 69.7909 19.3494 69.0693C19.5324 69.0776 19.7153 69.0853 19.8983 69.0915C20.6875 69.121 21.4776 69.1233 22.267 69.0985C32.4367 68.8084 41.5755 64.4049 48.0799 57.495C48.4726 57.0791 48.8548 56.6535 49.2263 56.2185C54.7672 49.7607 58.1146 41.3663 58.1146 32.1907C58.1146 30.3889 57.9859 28.6178 57.7348 26.8856C57.4915 25.1849 57.1281 23.5034 56.6475 21.854C53.9519 12.5851 47.7167 4.82092 39.5039 0.121094C42.7962 0.281168 46.0521 0.88224 49.1846 1.90822C50.8339 2.44944 52.4428 3.10685 53.9992 3.87553C63.1873 8.41466 70.2148 16.663 73.1247 26.6651C73.6051 28.3144 73.9682 29.9955 74.2113 31.696C74.4625 33.4282 74.5912 35.1994 74.5912 37.0011L74.5919 37.0004Z" fill="#E14F01"/>
<path d="M66.3532 34.5955C66.3532 43.7712 63.0051 52.1656 57.4642 58.6234C57.093 59.0583 56.7109 59.484 56.3185 59.8999C49.8141 66.8098 40.6753 71.2133 30.5056 71.5033C29.7162 71.5278 28.9262 71.5255 28.1369 71.4964C26.4981 71.4407 24.8649 71.2764 23.2479 71.0046C21.9113 70.4371 20.6095 69.7909 19.3494 69.0693C19.5324 69.0776 19.7153 69.0853 19.8983 69.0915C20.6875 69.121 21.4776 69.1233 22.267 69.0985C32.4367 68.8084 41.5755 64.4049 48.0799 57.495C48.4726 57.0791 48.8548 56.6535 49.2263 56.2185C54.7672 49.7607 58.1146 41.3663 58.1146 32.1907C58.1146 30.3889 57.9859 28.6178 57.7348 26.8856C57.4915 25.1849 57.1281 23.5034 56.6475 21.854C53.9519 12.5851 47.7167 4.82092 39.5039 0.121094C40.9738 0.19205 42.42 0.350659 43.8399 0.589963C44.491 0.865441 45.1303 1.15901 45.7613 1.46996C54.9487 6.00909 61.9769 14.2581 64.8861 24.2595C65.3667 25.909 65.7301 27.5904 65.9734 29.2912C66.2239 31.0234 66.3532 32.7945 66.3532 34.5955Z" fill="#F06B02"/>
<path d="M31.1693 10.3897C28.7185 12.0426 26.3275 13.9473 24.05 16.0495C24.274 16.222 24.4966 16.3946 24.7164 16.5657C25.8434 17.4367 26.9077 18.2603 27.9491 19.0374L27.9797 19.061C35.3014 25.0881 42.1035 31.5257 48.2002 38.1935C54.9578 45.5827 60.8374 53.2544 65.7028 61.029C65.3314 61.4637 64.9491 61.8891 64.5564 62.3048C53.0447 43.7747 37.8447 29.3191 26.948 20.3466C25.8611 19.5302 24.7814 18.7042 23.7091 17.8687L22.8395 17.1953C20.5829 19.3881 18.4853 21.7388 16.5627 24.2297C20.7693 28.5984 23.46 35.557 24.7714 45.4415C26.1418 56.6102 31.2173 66.9226 38.7442 73.909C37.9546 73.9334 37.1643 73.9311 36.3748 73.902C33.282 70.7584 30.5522 66.9566 28.3971 62.7716C25.6458 57.4325 23.8754 51.6725 23.1366 45.6502C21.8934 36.2798 19.4079 29.685 15.5588 25.5654C7.0044 37.2648 4.08753 49.1285 7.37866 58.1274C6.33484 56.6352 5.40357 55.0672 4.59257 53.4367C4.5877 53.4047 4.58492 53.3727 4.58074 53.34C4.23987 50.3194 4.43814 47.0742 5.16857 43.6934C6.52718 37.4116 9.69727 30.757 14.3352 24.4481L14.3595 24.4154C12.1494 22.8321 9.85448 22.2081 7.71257 22.613C5.68266 22.9956 3.81413 24.3187 2.2677 26.4586C2.64622 25.1872 3.09349 23.9374 3.60753 22.7146C4.78318 21.829 6.0597 21.2488 7.40718 20.9935C10.0145 20.501 12.7581 21.23 15.3515 23.1014C17.2469 20.657 19.3071 18.3451 21.5178 16.1817C18.5613 13.9264 15.4044 11.653 12.3449 10.1267C12.7724 9.72338 13.2096 9.33045 13.6562 8.94831C16.7275 10.5594 19.828 12.8161 22.7254 15.0304C24.9395 12.9628 27.3015 11.0595 29.7926 9.33579C28.818 8.50935 27.9992 7.6217 27.38 6.70622C26.2948 5.09927 25.8468 3.45475 26.059 1.93753C26.6642 1.73718 27.275 1.55283 27.8927 1.38379C27.0767 3.51109 28.402 6.15388 31.2173 8.38622C31.9905 7.88642 32.7769 7.40718 33.5755 6.94901C39.0267 3.82692 44.3233 2.12814 49.1846 1.90831C50.8339 2.44953 52.4428 3.10694 53.9992 3.87562C48.2413 2.77162 41.483 4.32083 34.395 8.37857C33.8176 8.70901 33.2423 9.05544 32.6691 9.41509C33.2821 9.80303 33.9156 10.1576 34.5668 10.4774C36.8924 11.6224 39.4538 12.4753 42.18 13.0144C58.0632 16.1497 68.1383 20.5615 73.1247 26.6645C73.6051 28.314 73.9682 29.9954 74.2113 31.6961C72.7491 27.9744 69.6882 24.8342 64.9014 22.1316C59.49 19.0777 51.954 16.6227 41.8607 14.6304C38.9933 14.0641 36.2934 13.1647 33.8385 11.9549C32.9111 11.4998 32.0194 10.9766 31.1693 10.3897Z" fill="#333333"/>
<path d="M4.24403 33.507C4.52925 31.4291 4.96403 29.8597 4.61969 29.8506C4.27603 29.8416 3.33551 31.5967 3.0503 33.6739C2.76508 35.7539 3.24369 37.3678 3.58734 37.3776C3.93238 37.3866 3.95882 35.5863 4.24403 33.507Z" fill="white"/>
<path d="M3.36824 37.1839C3.15329 36.5439 3.01276 35.3794 3.19989 34.0152C3.48024 31.9839 4.3825 30.2573 4.74424 30.1961C4.74911 29.9762 4.71294 29.8531 4.61902 29.8496C4.27607 29.8441 3.33694 31.5957 3.05102 33.6729C2.82285 35.3355 3.08024 36.6997 3.36824 37.1839Z" fill="#DCE0F4"/>
<path d="M5.65552 27.0429C5.83013 26.4571 5.85378 26.0217 5.7063 25.9744C5.55882 25.9277 5.11082 26.3326 4.93621 26.9183C4.76091 27.5048 4.92578 28.0495 5.07326 28.0968C5.22143 28.1434 5.48091 27.6293 5.65552 27.0429Z" fill="white"/>
<path d="M4.96752 27.9626C4.91187 27.749 4.9063 27.4339 5.003 27.1111C5.17691 26.524 5.62422 26.1205 5.76822 26.1678C5.77572 26.1688 5.7829 26.1715 5.78918 26.1757C5.79546 26.1799 5.80067 26.1856 5.80439 26.1922C5.80091 26.0725 5.76404 25.9876 5.70422 25.9765C5.55952 25.9285 5.11152 26.3327 4.9383 26.9198C4.811 27.3602 4.86874 27.7685 4.96752 27.9626Z" fill="#DCE0F4"/>
<path d="M62.7303 29.8487C62.1533 29.8483 61.5819 29.9617 61.0488 30.1824C60.5157 30.403 60.0313 30.7266 59.6234 31.1346C59.2154 31.5426 58.8919 32.0271 58.6713 32.5602C58.4508 33.0934 58.3375 33.6648 58.3379 34.2417C58.3383 33.0765 57.8764 31.9587 57.0538 31.1336C56.2288 30.3111 55.1113 29.8493 53.9463 29.8494C55.1113 29.8495 56.2288 29.3877 57.0538 28.5652C57.8764 27.74 58.3383 26.6222 58.3379 25.457C58.3379 26.6689 58.8319 27.7701 59.6221 28.5652C60.4473 29.3879 61.5651 29.849 62.7303 29.8487Z" fill="white"/>
</svg>
