<svg width="80" height="78" viewBox="0 0 80 78" fill="none" xmlns="http://www.w3.org/2000/svg">
<path d="M41.0642 56.1486H70.2795C63.4444 39.5958 65.7487 23.7188 65.7487 23.7188L43.0951 24.0312L41.0642 56.1486Z" fill="#738C96"/>
<path d="M68.0362 22.2398L53.2336 20.6016L38.4309 22.2398C38.7543 23.3959 39.02 24.4991 39.235 25.56C41.4458 36.4705 38.1875 42.8389 34.8617 54.728L42.6436 55.0402C43.8208 53.2328 45.6858 51.8945 47.8437 51.3823C48.9851 51.1114 49.7998 50.1012 49.77 48.9284C49.5129 38.8175 47.5067 31.2386 44.7154 25.5602H63.9333C61.7651 36.8837 65.394 45.3175 68.4689 54.7281L70.279 56.1488L71.789 54.7281C68.4215 44.4202 64.3872 35.285 68.0362 22.2398Z" fill="#607882"/>
<path d="M68.8344 21.3759L67.604 12.6465L35.7545 14.7627V18.9204L68.8344 21.3759Z" fill="#87A0AF"/>
<path d="M67.3928 13.4854V17.6746C67.3928 18.3621 66.8355 18.9196 66.1478 18.9196H35.7545V19.7471C35.7545 21.1236 36.9528 22.2397 38.4311 22.2397H68.0362C69.5145 22.2397 70.7128 21.1238 70.7128 19.7471V14.7619L67.3928 13.4854Z" fill="#738C96"/>
<path d="M72.8769 10.3025L70.0694 0.838867H65.9972C65.6667 0.838867 65.3497 0.970168 65.116 1.20389C64.8822 1.4376 64.7509 1.75459 64.7509 2.08512V5.62246H57.5531L54.233 0.838867H50.1608C49.8303 0.838867 49.5133 0.970168 49.2796 1.20389C49.0458 1.4376 48.9145 1.75459 48.9145 2.08512V5.62246H41.7167L38.3966 0.838867H34.3244C33.9938 0.838867 33.6769 0.970168 33.4431 1.20389C33.2094 1.4376 33.0781 1.75459 33.0781 2.08512V11.442L65.378 14.1106L72.8769 10.3025Z" fill="#87A0AF"/>
<path d="M41.7166 5.6223V2.08512C41.7166 1.75459 41.5853 1.4376 41.3516 1.20389C41.1179 0.970168 40.8009 0.838867 40.4704 0.838867H38.3966V4.37746C38.3966 5.06496 38.9539 5.62246 39.6416 5.62246L41.7166 5.6223ZM57.5532 5.6223V2.08512C57.5532 1.75459 57.4219 1.4376 57.1881 1.20389C56.9544 0.970168 56.6374 0.838867 56.3069 0.838867H54.2332V4.37746C54.2332 5.06496 54.7905 5.62246 55.4782 5.62246L57.5532 5.6223Z" fill="#738C96"/>
<path d="M72.1432 0.838867H70.0694V10.1971C70.0694 10.8846 69.5121 11.4421 68.8244 11.4421H33.078V12.2696C33.078 13.6462 34.2764 14.7623 35.7546 14.7623H70.713C72.1913 14.7623 73.3896 13.6464 73.3896 12.2696V2.08527C73.3896 1.92159 73.3574 1.7595 73.2947 1.60827C73.2321 1.45704 73.1403 1.31963 73.0245 1.20389C72.9088 1.08814 72.7714 0.996333 72.6202 0.933702C72.4689 0.871072 72.3068 0.838847 72.1432 0.838867Z" fill="#738C96"/>
<path d="M38.1638 59.8879L73.5799 60.1602L70.9619 54.7285H42.8569L38.1638 59.8879Z" fill="#87A0AF"/>
<path d="M71.7894 54.7285H70.9619V57.6413C70.9619 58.3288 70.4045 58.8863 69.7169 58.8863H40.7172C41.1314 58.5372 41.4242 58.0657 41.5534 57.5396C41.8064 56.5162 42.2558 55.5665 42.8569 54.7285H34.8619C33.3836 54.7285 32.1853 55.8445 32.1853 57.2212V62.2063L52.5706 65.0379L74.2819 62.2063V57.2212C74.282 55.8446 73.1661 54.7285 71.7894 54.7285Z" fill="#738C96"/>
<path d="M76.6799 62.2061H38.1638L35.0885 67.6592L74.2244 68.5965L78.2669 65.9451L76.6799 62.2061Z" fill="#87A0AF"/>
<path d="M77.5101 62.2061H76.6799V65.7828C76.6799 65.8591 76.6649 65.9346 76.6357 66.0051C76.6065 66.0756 76.5637 66.1396 76.5098 66.1936C76.4558 66.2475 76.3918 66.2903 76.3213 66.3195C76.2508 66.3487 76.1753 66.3637 76.099 66.3637H43.1644C42.7087 65.8503 42.0447 65.5262 41.3038 65.5262H38.1638V62.2061H28.9574C27.5822 62.2061 26.4674 63.3209 26.4674 64.6961V68.439C26.4674 69.1265 27.0247 69.684 27.7124 69.684H78.7551C78.9186 69.684 79.0805 69.6519 79.2315 69.5893C79.3826 69.5267 79.5198 69.435 79.6355 69.3194C79.7511 69.2038 79.8428 69.0666 79.9053 68.9155C79.9679 68.7644 80.0001 68.6025 80.0001 68.439V64.6961C80.0001 63.3209 78.8852 62.2061 77.5101 62.2061Z" fill="#738C96"/>
<path d="M15.2155 59.3027V62.2058L32.1853 63.9873L33.487 56.918L15.2155 59.3027Z" fill="#9BB9C3"/>
<path d="M34.8436 56.1483L25.0295 54.4961L15.2155 56.1483V59.3023H31.5234V63.987L34.8436 62.2055V56.1483Z" fill="#87A0AF"/>
<path d="M44.7747 43.7948C44.1106 23.9534 37.1813 15.6009 32.0811 10.6176C28.9842 8.24043 25.9988 6.93199 23.8453 6.22512C22.2331 5.6959 20.5752 6.89324 20.5752 8.59012V14.5009C8.98862 19.6179 0.867523 34.5231 0.867523 34.5231C-0.203102 36.3778 -0.282321 38.647 0.628148 40.5636C5.32643 45.24 11.3022 38.0532 11.3022 38.0532L19.9814 39.0004C19.9814 39.0004 14.5413 44.3386 11.9617 52.8287C11.9617 52.8287 17.7077 55.2778 30.3233 55.0043C33.6374 54.9326 44.8139 44.9673 44.7747 43.7948Z" fill="#D2E4E7"/>
<path d="M32.0811 10.6172C37.4994 16.4156 42.3869 26.1122 42.7981 42.2878C42.828 43.4606 42.0133 44.4708 40.8719 44.7417C37.8075 45.4691 35.3319 47.8611 34.5813 50.8984C34.3031 52.0239 33.3147 52.8281 32.1555 52.8281H11.9617C11.948 52.8733 11.9331 52.9173 11.9195 52.9627C11.4442 54.5523 12.6514 56.1483 14.3106 56.1483H35.8075C36.9667 56.1483 37.9552 55.3441 38.2333 54.2186C38.9839 51.1811 41.4595 48.7891 44.5239 48.0617C45.6653 47.7908 46.48 46.7806 46.4502 45.6078C45.9475 25.8328 38.7552 15.7402 32.0811 10.6172Z" fill="#B4D2D7"/>
<path d="M17.0891 28.6932C16.7589 28.6932 16.4423 28.562 16.2088 28.3285C15.9753 28.095 15.8441 27.7784 15.8441 27.4482V24.3983C15.8441 23.7107 16.4015 23.1533 17.0891 23.1533C17.7768 23.1533 18.3341 23.7107 18.3341 24.3983V27.4482C18.3341 27.7784 18.2029 28.095 17.9695 28.3285C17.736 28.562 17.4193 28.6932 17.0891 28.6932Z" fill="#9BB9C3"/>
<path d="M31.8719 27.4975C31.7219 27.4323 31.5606 27.3974 31.3971 27.3947C31.2336 27.392 31.0711 27.4215 30.9191 27.4816C30.767 27.5417 30.6283 27.6312 30.5108 27.7449C30.3933 27.8587 30.2994 27.9944 30.2344 28.1445L29.2807 30.3445C28.134 32.9895 25.4541 35.6753 20.3679 35.6797H10.324C10.0343 35.6798 9.75369 35.781 9.53063 35.9658C9.30756 36.1506 9.156 36.4075 9.10208 36.6922C8.31364 40.8429 4.87146 42.6847 0.628174 40.5629C1.0263 41.4011 1.61271 42.1722 2.39021 42.8109C4.7988 44.7897 8.33271 44.7551 10.7061 42.7343C11.8944 41.7228 12.6219 40.3967 12.8893 38.9998H20.3474C25.5797 38.9973 29.0455 37.1459 30.6275 33.497L32.5188 29.135C32.6502 28.832 32.6558 28.4893 32.5345 28.1823C32.4132 27.8752 32.1748 27.6288 31.8719 27.4975Z" fill="#B4D2D7"/>
<path d="M37.1562 62.2061H12.0755C10.699 62.2061 9.58289 63.322 9.58289 64.6987V66.3639L39.3457 68.7137L37.1562 62.2061Z" fill="#D2E4E7"/>
<path d="M37.9837 62.2061H37.1562V65.1189C37.1562 65.8064 36.5988 66.3639 35.9112 66.3639H9.58289V69.684L25.0296 71.7895L40.4763 69.684V64.6989C40.4763 63.3221 39.3604 62.2061 37.9837 62.2061Z" fill="#B4D2D7"/>
<path d="M45.3606 72.9316L42.4811 69.6836H6.74793C5.37278 69.6836 4.25793 70.7984 4.25793 72.1736V73.8414L38.75 76.3002L45.3606 72.9316Z" fill="#D2E4E7"/>
<path d="M43.3112 69.6836H42.4811V73.2603C42.4811 73.3366 42.466 73.4121 42.4368 73.4826C42.4076 73.5531 42.3648 73.6172 42.3109 73.6711C42.257 73.725 42.1929 73.7678 42.1224 73.797C42.052 73.8262 41.9764 73.8413 41.9001 73.8413H4.25793V75.9164C4.25793 76.6039 4.81528 77.1614 5.50293 77.1614H44.5562C44.7197 77.1614 44.8816 77.1292 45.0327 77.0667C45.1837 77.0041 45.321 76.9124 45.4366 76.7968C45.5522 76.6812 45.6439 76.5439 45.7065 76.3929C45.769 76.2418 45.8012 76.0799 45.8012 75.9164V72.1734C45.8011 70.7983 44.6864 69.6836 43.3112 69.6836Z" fill="#B4D2D7"/>
</svg>
