<svg width="61" height="64" viewBox="0 0 61 64" fill="none" xmlns="http://www.w3.org/2000/svg">
<path d="M60.52 31.9996C60.52 35.2822 60.0373 38.4449 59.1413 41.4182C55.296 54.1809 43.848 63.4396 30.32 63.4396C13.64 63.4369 0.119995 49.3622 0.119995 31.9996C0.119995 30.2529 0.255995 28.5382 0.519995 26.8689C2.872 11.9462 15.32 0.55957 30.32 0.55957C47 0.55957 60.52 14.6342 60.52 31.9996Z" fill="#B1CD0A"/>
<path d="M40.424 2.3513C40.2853 2.7513 39.96 3.07663 39.52 3.19663C39.4533 3.2153 35.7733 4.2313 30.9013 6.56996C28.0373 7.94596 25.328 9.5033 22.848 11.1993C19.7627 13.3086 17.0267 15.642 14.712 18.13C12.7387 20.2526 11.4587 22.8873 11.0107 25.7486C10.5627 28.61 10.976 31.5113 12.208 34.1326C13.1573 36.1566 14.5093 37.882 16.2267 39.2606C17.848 40.5646 19.7813 41.522 21.8187 42.026C23.8533 42.5326 26.0107 42.5913 28.0533 42.1993C30.216 41.7833 32.2187 40.8926 34.0053 39.5486L41.9813 33.5513C44.36 31.762 46.9413 30.2286 49.6507 28.9913C52.36 27.7566 55.2107 26.8126 58.12 26.1886L59.88 25.81C59.8987 25.8073 59.9173 25.802 59.936 25.7993V25.802L60.328 28.4153L58.6747 28.77C55.9493 29.354 53.2827 30.2366 50.7467 31.394C48.2107 32.5513 45.7973 33.986 43.568 35.6606L35.592 41.658C32.5893 43.9166 28.9973 45.098 25.3333 45.098C23.952 45.098 22.5573 44.93 21.1813 44.5886C16.16 43.3406 12.0187 39.938 9.81866 35.2526C8.36266 32.1513 7.87466 28.7246 8.40532 25.338C8.93599 21.954 10.448 18.8393 12.7813 16.33C15.2347 13.69 18.1333 11.2206 21.3947 8.99663C23.992 7.2233 26.8267 5.59663 29.8187 4.16196C32.7333 2.76463 35.2107 1.8313 36.8267 1.2793L40.424 2.3513Z" fill="white"/>
<path d="M59.1413 41.4185C55.296 54.1811 43.848 63.4398 30.32 63.4398C13.64 63.4371 0.119995 49.3625 0.119995 31.9998C0.119995 30.2531 0.255995 28.5385 0.519995 26.8691C3.144 27.5705 17.9813 32.2958 24.6533 50.8798C31.9867 71.3065 48.776 31.3705 59.1413 41.4185Z" fill="#019C4F" fill-opacity="0.133333"/>
</svg>
