<svg width="81" height="80" viewBox="0 0 81 80" fill="none" xmlns="http://www.w3.org/2000/svg">
<path d="M79.9862 32.6164C78.6246 25.3206 72.0632 24.7077 67.3199 19.3847C59.9938 11.1634 52.5448 0 40.6666 0C39.4255 0 38.1976 0.0567187 36.9854 0.167344C28.4771 0.943594 20.739 4.38438 14.6126 9.64812L4.48584 53.9616L7.9999 63.0892C12.7472 69.7936 19.5063 74.9727 27.3982 77.7467C31.5502 79.2063 36.988 71.1631 41.6388 71.1631C57.7518 71.1631 69.3407 68.2381 77.0033 56.7439C79.3544 51.6502 80.6666 45.9784 80.6666 40C80.6666 37.4775 80.4327 35.0095 79.9862 32.6164Z" fill="#F1CD88"/>
<path d="M79.9862 32.6162L74.4012 34.3884C74.6473 36.2487 74.7705 38.1233 74.7701 39.9998C74.7701 48.5193 72.2519 56.4504 67.9194 63.0896L76.8583 57.055C79.3008 51.8818 80.6666 46.1004 80.6666 39.9998C80.6676 37.5229 80.4398 35.0512 79.9862 32.6162Z" fill="#EBB34C"/>
<path d="M72.7535 16.1127C72.9096 18.6513 72.6432 22.9383 71.3175 25.1097C70.4691 26.4994 68.4038 26.5516 66.6722 26.9681C61.1816 17.4052 53.1704 9.12031 42.933 3.20797C41.0038 2.0934 39.0186 1.07852 36.9854 0.167345C38.2092 0.0555005 39.4376 -0.000339052 40.6666 1.54871e-06C53.803 1.54871e-06 65.4618 6.33235 72.7535 16.1127Z" fill="#717ED4"/>
<path d="M70.4438 21.3421C71.3517 19.6631 72.1241 17.9144 72.7537 16.1125C66.9349 8.30785 58.3351 2.6991 48.4227 0.751602C48.3426 0.73707 48.2618 0.723164 48.1827 0.708008C57.9055 4.60285 65.8465 12.0014 70.4438 21.3421ZM16.3688 24.0063C14.5898 22.8018 12.7115 21.9133 10.3508 21.8627C8.20288 21.8164 6.03131 22.4713 3.92444 24.1674C1.82725 29.0236 0.666626 34.3757 0.666626 39.9999C0.666626 48.6004 3.38178 56.5668 7.99991 63.0891C7.77433 60.8813 7.66163 58.6635 7.66225 56.4443C7.66225 44.6228 10.8316 33.5419 16.3688 24.0063ZM38.9555 69.051C37.4763 65.1314 36.6651 60.8819 36.6651 56.4441C36.6651 55.6344 36.6924 54.8313 36.7471 54.0344C36.8698 52.181 42.1808 49.7341 42.5762 47.9686C43.2543 44.9411 40.9443 41.6449 42.3382 38.9616C39.7643 34.9261 34.6674 32.4054 30.4758 29.5997C25.5037 37.3438 22.6207 46.5575 22.6207 56.4439C22.6207 64.0657 24.3349 71.2883 27.398 77.7463C31.551 79.2064 36.0163 79.9999 40.6666 79.9999C42.236 79.9999 43.7846 79.9097 45.3073 79.7327C43.9071 78.108 44.261 76.3561 43.169 74.4966C42.1546 72.7691 39.6718 70.9486 38.9555 69.051Z" fill="#5766CC"/>
<path d="M72.7535 16.1123C71.3885 20.0221 69.3458 23.7051 66.6722 26.9678C64.0179 30.2096 60.7422 33.0346 56.9 35.2543C56.2036 35.6557 55.4938 36.0336 54.7721 36.3875L40.665 40.0076C38.4582 44.2554 37.0804 49.0023 36.7471 54.0342C45.9382 54.4704 55.3596 52.3601 63.9213 47.4168C70.5257 43.6036 75.9264 38.504 79.986 32.6159C78.848 26.5139 76.3238 20.9011 72.7535 16.1123Z" fill="#DDEBFD"/>
<path d="M70.4438 21.3427C73.0735 26.6858 74.6081 32.6645 74.7568 38.9866C76.6745 37.0129 78.4237 34.8823 79.9862 32.617C78.8482 26.5148 76.3238 20.902 72.7537 16.1133C72.1241 17.9151 71.3517 19.6637 70.4438 21.3427Z" fill="#BED9FD"/>
<path d="M71.3997 60.3723C61.1624 66.2829 49.9816 69.0773 38.9555 69.0515C40.4428 72.992 42.6063 76.5991 45.3072 79.7332C59.4143 78.1043 71.2843 69.1354 77.0033 56.7441C75.1988 58.0486 73.3284 59.2596 71.3997 60.3723Z" fill="#DDEBFD"/>
<path d="M68.6987 61.8468C63.9673 69.6776 56.7704 75.8518 48.1824 79.2921C48.556 79.221 48.9399 79.1424 49.3316 79.0577C61.6513 76.3374 71.8371 67.9376 77.0034 56.7441C75.1988 58.0485 73.3285 59.2595 71.3998 60.3721C70.5111 60.8847 69.6105 61.3764 68.6987 61.8468Z" fill="#BED9FD"/>
<path d="M35.4546 16.1628C28.8518 12.3513 21.7385 10.2247 14.6126 9.64844C10.0299 13.5856 6.35025 18.5419 3.92462 24.1677C7.99384 23.3934 12.2063 23.3209 16.3688 24.0067C21.5382 24.8539 26.3784 26.8386 30.4759 29.6003C34.6674 32.4059 38.0912 35.973 40.6651 40.0084C45.4474 39.7959 50.2474 38.6161 54.7721 36.3883C50.5532 28.2112 44.0163 21.1061 35.4546 16.1628Z" fill="#717ED4"/>
</svg>
